<!DOCTYPE svg PUBLIC "-//W3C//DTD SVG 1.1//EN" "http://www.w3.org/Graphics/SVG/1.1/DTD/svg11.dtd">
<!-- Uploaded to: SVG Repo, www.svgrepo.com, Transformed by: SVG Repo Mixer Tools -->
<svg fill="#000000" width="800px" height="800px" viewBox="0 0 24 24" id="molecule-5" data-name="Flat Line" xmlns="http://www.w3.org/2000/svg" class="icon flat-line">
<g id="SVGRepo_bgCarrier" stroke-width="0"/>
<g id="SVGRepo_tracerCarrier" stroke-linecap="round" stroke-linejoin="round"/>
<g id="SVGRepo_iconCarrier">
<circle id="secondary" cx="13" cy="13" r="3" style="fill: #fd9453; stroke-width: 2;"/>
<path id="primary" d="M10.85,10.85,6.41,6.41m8.9,8.9L17,17m-2.25-6.75L17,6.73m-6.72,8L6.73,17M13,10a3,3,0,1,1-3,3A3,3,0,0,1,13,10ZM5,3A2,2,0,1,1,3,5,2,2,0,0,1,5,3ZM19,21a2,2,0,1,1,2-2A2,2,0,0,1,19,21ZM18,7a2,2,0,1,1,2-2A2,2,0,0,1,18,7ZM5,20a2,2,0,1,1,2-2A2,2,0,0,1,5,20Z" style="fill: none; stroke: #000000; stroke-linecap: round; stroke-linejoin: round; stroke-width: 2;"/>
</g>
</svg>