<svg width="1363" height="163" viewBox="0 0 1363 163" fill="none" xmlns="http://www.w3.org/2000/svg">
<path d="M0 15C0 6.71573 6.71573 0 15 0H37V163H15C6.71573 163 0 156.284 0 148V15Z" fill="#424242"/>
<rect width="1097" height="163" transform="translate(37)" fill="#F0F0F0"/>
<path d="M101.906 53.9219L94.3945 51.2383V48.0859L104.602 52.375V54.6367L101.906 53.9219ZM94.3945 56.1719L101.918 53.4297L104.602 52.7852V55.0352L94.3945 59.3242V56.1719ZM119.836 46.8555L115.195 61H111.457L117.797 43.9375H120.176L119.836 46.8555ZM123.691 61L119.039 46.8555L118.664 43.9375H121.066L127.441 61H123.691ZM123.48 54.6484V57.4023H114.469V54.6484H123.48ZM132.375 48.3203V61H128.988V48.3203H132.375ZM128.777 45.0156C128.777 44.5234 128.949 44.1172 129.293 43.7969C129.637 43.4766 130.098 43.3164 130.676 43.3164C131.246 43.3164 131.703 43.4766 132.047 43.7969C132.398 44.1172 132.574 44.5234 132.574 45.0156C132.574 45.5078 132.398 45.9141 132.047 46.2344C131.703 46.5547 131.246 46.7148 130.676 46.7148C130.098 46.7148 129.637 46.5547 129.293 46.2344C128.949 45.9141 128.777 45.5078 128.777 45.0156ZM138.539 51.0859V61H135.164V48.3203H138.34L138.539 51.0859ZM142.359 48.2383L142.301 51.3672C142.137 51.3438 141.938 51.3242 141.703 51.3086C141.477 51.2852 141.27 51.2734 141.082 51.2734C140.605 51.2734 140.191 51.3359 139.84 51.4609C139.496 51.5781 139.207 51.7539 138.973 51.9883C138.746 52.2227 138.574 52.5078 138.457 52.8438C138.348 53.1797 138.285 53.5625 138.27 53.9922L137.59 53.7812C137.59 52.9609 137.672 52.207 137.836 51.5195C138 50.8242 138.238 50.2188 138.551 49.7031C138.871 49.1875 139.262 48.7891 139.723 48.5078C140.184 48.2266 140.711 48.0859 141.305 48.0859C141.492 48.0859 141.684 48.1016 141.879 48.1328C142.074 48.1562 142.234 48.1914 142.359 48.2383ZM143.062 54.7891V54.543C143.062 53.6133 143.195 52.7578 143.461 51.9766C143.727 51.1875 144.113 50.5039 144.621 49.9258C145.129 49.3477 145.754 48.8984 146.496 48.5781C147.238 48.25 148.09 48.0859 149.051 48.0859C150.012 48.0859 150.867 48.25 151.617 48.5781C152.367 48.8984 152.996 49.3477 153.504 49.9258C154.02 50.5039 154.41 51.1875 154.676 51.9766C154.941 52.7578 155.074 53.6133 155.074 54.543V54.7891C155.074 55.7109 154.941 56.5664 154.676 57.3555C154.41 58.1367 154.02 58.8203 153.504 59.4062C152.996 59.9844 152.371 60.4336 151.629 60.7539C150.887 61.0742 150.035 61.2344 149.074 61.2344C148.113 61.2344 147.258 61.0742 146.508 60.7539C145.766 60.4336 145.137 59.9844 144.621 59.4062C144.113 58.8203 143.727 58.1367 143.461 57.3555C143.195 56.5664 143.062 55.7109 143.062 54.7891ZM146.438 54.543V54.7891C146.438 55.3203 146.484 55.8164 146.578 56.2773C146.672 56.7383 146.82 57.1445 147.023 57.4961C147.234 57.8398 147.508 58.1094 147.844 58.3047C148.18 58.5 148.59 58.5977 149.074 58.5977C149.543 58.5977 149.945 58.5 150.281 58.3047C150.617 58.1094 150.887 57.8398 151.09 57.4961C151.293 57.1445 151.441 56.7383 151.535 56.2773C151.637 55.8164 151.688 55.3203 151.688 54.7891V54.543C151.688 54.0273 151.637 53.543 151.535 53.0898C151.441 52.6289 151.289 52.2227 151.078 51.8711C150.875 51.5117 150.605 51.2305 150.27 51.0273C149.934 50.8242 149.527 50.7227 149.051 50.7227C148.574 50.7227 148.168 50.8242 147.832 51.0273C147.504 51.2305 147.234 51.5117 147.023 51.8711C146.82 52.2227 146.672 52.6289 146.578 53.0898C146.484 53.543 146.438 54.0273 146.438 54.543ZM161.473 58.293L164.871 43.9375H166.77L167.203 46.3281L163.582 61H161.543L161.473 58.293ZM159.727 43.9375L162.539 58.293L162.305 61H160.031L156.246 43.9375H159.727ZM170.191 58.2344L172.969 43.9375H176.449L172.676 61H170.402L170.191 58.2344ZM167.836 43.9375L171.258 58.3516L171.164 61H169.125L165.48 46.3164L165.949 43.9375H167.836ZM184.594 58.1406V52.4922C184.594 52.0859 184.527 51.7383 184.395 51.4492C184.262 51.1523 184.055 50.9219 183.773 50.7578C183.5 50.5938 183.145 50.5117 182.707 50.5117C182.332 50.5117 182.008 50.5781 181.734 50.7109C181.461 50.8359 181.25 51.0195 181.102 51.2617C180.953 51.4961 180.879 51.7734 180.879 52.0938H177.504C177.504 51.5547 177.629 51.043 177.879 50.5586C178.129 50.0742 178.492 49.6484 178.969 49.2812C179.445 48.9062 180.012 48.6133 180.668 48.4023C181.332 48.1914 182.074 48.0859 182.895 48.0859C183.879 48.0859 184.754 48.25 185.52 48.5781C186.285 48.9062 186.887 49.3984 187.324 50.0547C187.77 50.7109 187.992 51.5312 187.992 52.5156V57.9414C187.992 58.6367 188.035 59.207 188.121 59.6523C188.207 60.0898 188.332 60.4727 188.496 60.8008V61H185.086C184.922 60.6562 184.797 60.2266 184.711 59.7109C184.633 59.1875 184.594 58.6641 184.594 58.1406ZM185.039 53.2773L185.062 55.1875H183.176C182.73 55.1875 182.344 55.2383 182.016 55.3398C181.688 55.4414 181.418 55.5859 181.207 55.7734C180.996 55.9531 180.84 56.1641 180.738 56.4062C180.645 56.6484 180.598 56.9141 180.598 57.2031C180.598 57.4922 180.664 57.7539 180.797 57.9883C180.93 58.2148 181.121 58.3945 181.371 58.5273C181.621 58.6523 181.914 58.7148 182.25 58.7148C182.758 58.7148 183.199 58.6133 183.574 58.4102C183.949 58.207 184.238 57.957 184.441 57.6602C184.652 57.3633 184.762 57.082 184.77 56.8164L185.66 58.2461C185.535 58.5664 185.363 58.8984 185.145 59.2422C184.934 59.5859 184.664 59.9102 184.336 60.2148C184.008 60.5117 183.613 60.7578 183.152 60.9531C182.691 61.1406 182.145 61.2344 181.512 61.2344C180.707 61.2344 179.977 61.0742 179.32 60.7539C178.672 60.4258 178.156 59.9766 177.773 59.4062C177.398 58.8281 177.211 58.1719 177.211 57.4375C177.211 56.7734 177.336 56.1836 177.586 55.668C177.836 55.1523 178.203 54.7188 178.688 54.3672C179.18 54.0078 179.793 53.7383 180.527 53.5586C181.262 53.3711 182.113 53.2773 183.082 53.2773H185.039ZM194.719 58.5391L197.531 48.3203H201.059L196.781 61H194.648L194.719 58.5391ZM192.785 48.3203L195.609 58.5508L195.668 61H193.523L189.246 48.3203H192.785ZM208.242 61.2344C207.258 61.2344 206.375 61.0781 205.594 60.7656C204.812 60.4453 204.148 60.0039 203.602 59.4414C203.062 58.8789 202.648 58.2266 202.359 57.4844C202.07 56.7344 201.926 55.9375 201.926 55.0938V54.625C201.926 53.6641 202.062 52.7852 202.336 51.9883C202.609 51.1914 203 50.5 203.508 49.9141C204.023 49.3281 204.648 48.8789 205.383 48.5664C206.117 48.2461 206.945 48.0859 207.867 48.0859C208.766 48.0859 209.562 48.2344 210.258 48.5312C210.953 48.8281 211.535 49.25 212.004 49.7969C212.48 50.3438 212.84 51 213.082 51.7656C213.324 52.5234 213.445 53.3672 213.445 54.2969V55.7031H203.367V53.4531H210.129V53.1953C210.129 52.7266 210.043 52.3086 209.871 51.9414C209.707 51.5664 209.457 51.2695 209.121 51.0508C208.785 50.832 208.355 50.7227 207.832 50.7227C207.387 50.7227 207.004 50.8203 206.684 51.0156C206.363 51.2109 206.102 51.4844 205.898 51.8359C205.703 52.1875 205.555 52.6016 205.453 53.0781C205.359 53.5469 205.312 54.0625 205.312 54.625V55.0938C205.312 55.6016 205.383 56.0703 205.523 56.5C205.672 56.9297 205.879 57.3008 206.145 57.6133C206.418 57.9258 206.746 58.168 207.129 58.3398C207.52 58.5117 207.961 58.5977 208.453 58.5977C209.062 58.5977 209.629 58.4805 210.152 58.2461C210.684 58.0039 211.141 57.6406 211.523 57.1562L213.164 58.9375C212.898 59.3203 212.535 59.6875 212.074 60.0391C211.621 60.3906 211.074 60.6797 210.434 60.9062C209.793 61.125 209.062 61.2344 208.242 61.2344Z" fill="#888888"/>
<path d="M118.594 98.4219V104.75H101.086V98.4219H118.594ZM103.828 84.875V119H95.6016V84.875H103.828ZM124.125 84.875V119H115.922V84.875H124.125ZM127.992 106.578V106.086C127.992 104.227 128.258 102.516 128.789 100.953C129.32 99.375 130.102 98.0078 131.133 96.8516C132.164 95.6953 133.438 94.7969 134.953 94.1562C136.469 93.5 138.219 93.1719 140.203 93.1719C142.203 93.1719 143.961 93.5 145.477 94.1562C147.008 94.7969 148.289 95.6953 149.32 96.8516C150.352 98.0078 151.133 99.375 151.664 100.953C152.195 102.516 152.461 104.227 152.461 106.086V106.578C152.461 108.422 152.195 110.133 151.664 111.711C151.133 113.273 150.352 114.641 149.32 115.812C148.289 116.969 147.016 117.867 145.5 118.508C143.984 119.148 142.234 119.469 140.25 119.469C138.266 119.469 136.508 119.148 134.977 118.508C133.445 117.867 132.164 116.969 131.133 115.812C130.102 114.641 129.32 113.273 128.789 111.711C128.258 110.133 127.992 108.422 127.992 106.578ZM135.891 106.086V106.578C135.891 107.531 135.961 108.422 136.102 109.25C136.242 110.078 136.477 110.805 136.805 111.43C137.133 112.039 137.578 112.516 138.141 112.859C138.703 113.203 139.406 113.375 140.25 113.375C141.078 113.375 141.766 113.203 142.312 112.859C142.875 112.516 143.32 112.039 143.648 111.43C143.977 110.805 144.211 110.078 144.352 109.25C144.492 108.422 144.562 107.531 144.562 106.578V106.086C144.562 105.164 144.492 104.297 144.352 103.484C144.211 102.656 143.977 101.93 143.648 101.305C143.32 100.664 142.875 100.164 142.312 99.8047C141.75 99.4453 141.047 99.2656 140.203 99.2656C139.375 99.2656 138.68 99.4453 138.117 99.8047C137.57 100.164 137.133 100.664 136.805 101.305C136.477 101.93 136.242 102.656 136.102 103.484C135.961 104.297 135.891 105.164 135.891 106.086ZM163.688 111.453L168.375 93.6406H173.32L171.562 102.57L166.922 119H162.961L163.688 111.453ZM161.836 93.6406L164.742 111.312L165.07 119H160.266L154.266 93.6406H161.836ZM177.492 110.938L180.422 93.6406H187.992L182.039 119H177.234L177.492 110.938ZM173.883 93.6406L178.617 111.406L179.344 119H175.336L170.789 102.617L169.102 93.6406H173.883ZM218.297 84.875V119H210.07V84.875H218.297ZM228.562 84.875V91.2266H200.039V84.875H228.562ZM225.773 106.578V106.086C225.773 104.227 226.039 102.516 226.57 100.953C227.102 99.375 227.883 98.0078 228.914 96.8516C229.945 95.6953 231.219 94.7969 232.734 94.1562C234.25 93.5 236 93.1719 237.984 93.1719C239.984 93.1719 241.742 93.5 243.258 94.1562C244.789 94.7969 246.07 95.6953 247.102 96.8516C248.133 98.0078 248.914 99.375 249.445 100.953C249.977 102.516 250.242 104.227 250.242 106.086V106.578C250.242 108.422 249.977 110.133 249.445 111.711C248.914 113.273 248.133 114.641 247.102 115.812C246.07 116.969 244.797 117.867 243.281 118.508C241.766 119.148 240.016 119.469 238.031 119.469C236.047 119.469 234.289 119.148 232.758 118.508C231.227 117.867 229.945 116.969 228.914 115.812C227.883 114.641 227.102 113.273 226.57 111.711C226.039 110.133 225.773 108.422 225.773 106.578ZM233.672 106.086V106.578C233.672 107.531 233.742 108.422 233.883 109.25C234.023 110.078 234.258 110.805 234.586 111.43C234.914 112.039 235.359 112.516 235.922 112.859C236.484 113.203 237.188 113.375 238.031 113.375C238.859 113.375 239.547 113.203 240.094 112.859C240.656 112.516 241.102 112.039 241.43 111.43C241.758 110.805 241.992 110.078 242.133 109.25C242.273 108.422 242.344 107.531 242.344 106.578V106.086C242.344 105.164 242.273 104.297 242.133 103.484C241.992 102.656 241.758 101.93 241.43 101.305C241.102 100.664 240.656 100.164 240.094 99.8047C239.531 99.4453 238.828 99.2656 237.984 99.2656C237.156 99.2656 236.461 99.4453 235.898 99.8047C235.352 100.164 234.914 100.664 234.586 101.305C234.258 101.93 234.023 102.656 233.883 103.484C233.742 104.297 233.672 105.164 233.672 106.086ZM266.086 84.875H279.516C282.141 84.875 284.422 85.2656 286.359 86.0469C288.297 86.8281 289.789 87.9844 290.836 89.5156C291.898 91.0469 292.43 92.9375 292.43 95.1875C292.43 97.1406 292.125 98.7734 291.516 100.086C290.906 101.398 290.055 102.484 288.961 103.344C287.883 104.188 286.625 104.883 285.188 105.43L282.492 106.953H271.219L271.172 100.602H279.516C280.562 100.602 281.43 100.414 282.117 100.039C282.805 99.6641 283.32 99.1328 283.664 98.4453C284.023 97.7422 284.203 96.9062 284.203 95.9375C284.203 94.9531 284.023 94.1094 283.664 93.4062C283.305 92.7031 282.773 92.1641 282.07 91.7891C281.383 91.4141 280.531 91.2266 279.516 91.2266H274.312V119H266.086V84.875ZM284.766 119L277.219 103.906L285.938 103.859L293.578 118.648V119H284.766ZM311.836 112.836V93.6406H319.758V119H312.352L311.836 112.836ZM312.586 107.68L314.648 107.633C314.648 109.336 314.445 110.914 314.039 112.367C313.633 113.805 313.031 115.055 312.234 116.117C311.453 117.18 310.484 118.008 309.328 118.602C308.188 119.18 306.867 119.469 305.367 119.469C304.117 119.469 302.969 119.297 301.922 118.953C300.891 118.594 300 118.039 299.25 117.289C298.5 116.523 297.914 115.547 297.492 114.359C297.086 113.156 296.883 111.719 296.883 110.047V93.6406H304.781V110.094C304.781 110.656 304.852 111.141 304.992 111.547C305.133 111.953 305.336 112.297 305.602 112.578C305.867 112.844 306.195 113.047 306.586 113.188C306.992 113.312 307.453 113.375 307.969 113.375C309.156 113.375 310.086 113.125 310.758 112.625C311.43 112.125 311.898 111.445 312.164 110.586C312.445 109.727 312.586 108.758 312.586 107.68ZM331.875 99.0547V119H323.977V93.6406H331.383L331.875 99.0547ZM330.938 105.453L329.086 105.5C329.086 103.562 329.32 101.836 329.789 100.32C330.258 98.7891 330.922 97.4922 331.781 96.4297C332.641 95.3672 333.664 94.5625 334.852 94.0156C336.055 93.4531 337.391 93.1719 338.859 93.1719C340.031 93.1719 341.102 93.3438 342.07 93.6875C343.055 94.0312 343.898 94.5859 344.602 95.3516C345.32 96.1172 345.867 97.1328 346.242 98.3984C346.633 99.6484 346.828 101.195 346.828 103.039V119H338.883V103.016C338.883 102 338.742 101.227 338.461 100.695C338.18 100.148 337.773 99.7734 337.242 99.5703C336.711 99.3672 336.062 99.2656 335.297 99.2656C334.484 99.2656 333.797 99.4219 333.234 99.7344C332.672 100.047 332.219 100.484 331.875 101.047C331.547 101.594 331.305 102.242 331.148 102.992C331.008 103.742 330.938 104.562 330.938 105.453ZM363.773 108.195H357.047C357.047 106.82 357.141 105.609 357.328 104.562C357.531 103.5 357.875 102.547 358.359 101.703C358.844 100.859 359.5 100.078 360.328 99.3594C361.062 98.75 361.695 98.1641 362.227 97.6016C362.758 97.0391 363.164 96.4688 363.445 95.8906C363.727 95.3125 363.867 94.6953 363.867 94.0391C363.867 93.2266 363.75 92.5625 363.516 92.0469C363.297 91.5312 362.961 91.1484 362.508 90.8984C362.07 90.6328 361.516 90.5 360.844 90.5C360.297 90.5 359.781 90.6328 359.297 90.8984C358.828 91.1641 358.445 91.5781 358.148 92.1406C357.852 92.6875 357.688 93.4141 357.656 94.3203H349.711C349.758 91.9922 350.273 90.1016 351.258 88.6484C352.258 87.1797 353.586 86.1094 355.242 85.4375C356.914 84.75 358.781 84.4062 360.844 84.4062C363.125 84.4062 365.086 84.7578 366.727 85.4609C368.367 86.1641 369.625 87.2109 370.5 88.6016C371.375 89.9766 371.812 91.6719 371.812 93.6875C371.812 95.0312 371.555 96.2031 371.039 97.2031C370.539 98.1875 369.859 99.1094 369 99.9688C368.156 100.812 367.211 101.719 366.164 102.688C365.258 103.484 364.641 104.297 364.312 105.125C363.984 105.938 363.805 106.961 363.773 108.195ZM356.086 115.32C356.086 114.195 356.492 113.258 357.305 112.508C358.117 111.742 359.172 111.359 360.469 111.359C361.766 111.359 362.82 111.742 363.633 112.508C364.445 113.258 364.852 114.195 364.852 115.32C364.852 116.445 364.445 117.391 363.633 118.156C362.82 118.906 361.766 119.281 360.469 119.281C359.172 119.281 358.117 118.906 357.305 118.156C356.492 117.391 356.086 116.445 356.086 115.32Z" fill="black"/>
<path d="M1134 0H1348C1356.28 0 1363 6.71573 1363 15V148C1363 156.284 1356.28 163 1348 163H1134V0Z" fill="#FF731D"/>
<path d="M1260.62 78.8078C1263.81 78.8078 1266.93 79.7552 1269.59 81.5302C1272.25 83.3052 1274.32 85.8281 1275.54 88.7798C1276.76 91.7315 1277.08 94.9795 1276.46 98.1131C1275.84 101.247 1274.3 104.125 1272.04 106.384C1269.78 108.643 1266.9 110.182 1263.77 110.805C1260.63 111.428 1257.39 111.108 1254.43 109.886C1251.48 108.663 1248.96 106.593 1247.18 103.936C1245.41 101.28 1244.46 98.1565 1244.46 94.9616C1244.46 90.6774 1246.16 86.5686 1249.19 83.5392C1252.22 80.5097 1256.33 78.8078 1260.62 78.8078ZM1260.62 73.4232C1256.36 73.4232 1252.19 74.6864 1248.65 77.0531C1245.11 79.4198 1242.35 82.7836 1240.72 86.7192C1239.09 90.6549 1238.66 94.9855 1239.49 99.1636C1240.32 103.342 1242.37 107.179 1245.39 110.192C1248.4 113.204 1252.24 115.255 1256.41 116.086C1260.59 116.917 1264.92 116.491 1268.86 114.861C1272.79 113.23 1276.16 110.47 1278.52 106.928C1280.89 103.386 1282.15 99.2215 1282.15 94.9616C1282.15 89.2493 1279.88 83.7709 1275.85 79.7317C1271.81 75.6924 1266.33 73.4232 1260.62 73.4232Z" fill="white"/>
<path d="M1274.08 46.4999H1220.23C1218.8 46.4999 1217.43 47.0672 1216.42 48.0771C1215.41 49.0869 1214.85 50.4565 1214.85 51.8845V105.731C1214.85 107.159 1215.41 108.528 1216.42 109.538C1217.43 110.548 1218.8 111.115 1220.23 111.115H1231V105.731H1220.23V68.0383H1279.46V51.8845C1279.46 50.4565 1278.89 49.0869 1277.88 48.0771C1276.87 47.0672 1275.5 46.4999 1274.08 46.4999ZM1220.23 62.6537V51.8845H1274.08V62.6537H1220.23Z" fill="white"/>
<path d="M1255.23 86.8848V103.039L1268.69 94.9617L1255.23 86.8848Z" fill="white"/>
</svg>
